# xmcd
#
# Track frame offsets:
#	150
#	17715
#	29295
#	42970
#	59385
#	73772
#	85520
#	104542
#	114042
#	128520
#	139957
#	150192
#	164365
#	174205
#
# Disc length: 2546 seconds
#
# Revision: 1
# Processed by: cddbd v1.5.2PL0 Copyright (c) Steve Scherf et al.
# Submitted via: audiograbber 1.83.01
#
DISCID=a509f00e
DTITLE=Various Artist - All Star Country Christmas
DYEAR=1993
DGENRE=Country
TTITLE0=Clinton Gregory - Christmas in Virginia
TTITLE1=Ray Price - For Christmas
TTITLE2=Buddy Emmons - Have yourself a merry little Christmas
TTITLE3=Jack Green - I'll be home on Christmas day
TTITLE4=Faron Young - The Christmas song
TTITLE5=The Geezinslaws - Lighten up it's Christmas
TTITLE6=Flyod Cramer - Silver bells,Winter wonderland, up on housetop,jingle be
TTITLE6=lls
TTITLE7=Jack Robertson - My favorite time of year
TTITLE8=Clinton Gregory - Blue Christmas
TTITLE9=Flyod Cramer - We wish you a merry Christmas,I'll be home for Christmas
TTITLE10=Ray Price - White Christmas
TTITLE11=The Geezinslaws - Merry Christmas baby
TTITLE12=Buddy Emmons - Sleigh ride
TTITLE13=Faron Young - White Christmas
EXTD=
EXTT0=
EXTT1=
EXTT2=
EXTT3=
EXTT4=
EXTT5=
EXTT6=
EXTT7=
EXTT8=
EXTT9=
EXTT10=
EXTT11=
EXTT12=
EXTT13=
PLAYORDER=
